<?xml version="1.0" encoding="UTF-8" standalone="no"?>
<!-- Created with Inkscape (http://www.inkscape.org/) -->

<svg
   width="150mm"
   height="26.327423mm"
   viewBox="0 0 150 26.327423"
   version="1.1"
   id="svg5"
   xml:space="preserve"
   inkscape:version="1.2.2 (732a01da63, 2022-12-09)"
   sodipodi:docname="spottedLogo.svg"
   xmlns:inkscape="http://www.inkscape.org/namespaces/inkscape"
   xmlns:sodipodi="http://sodipodi.sourceforge.net/DTD/sodipodi-0.dtd"
   xmlns:xlink="http://www.w3.org/1999/xlink"
   xmlns="http://www.w3.org/2000/svg"
   xmlns:svg="http://www.w3.org/2000/svg"><sodipodi:namedview
     id="namedview7"
     pagecolor="#505050"
     bordercolor="#eeeeee"
     borderopacity="1"
     inkscape:showpageshadow="0"
     inkscape:pageopacity="0"
     inkscape:pagecheckerboard="0"
     inkscape:deskcolor="#505050"
     inkscape:document-units="mm"
     showgrid="false"
     inkscape:zoom="2"
     inkscape:cx="-889.75"
     inkscape:cy="-260.25"
     inkscape:window-width="1920"
     inkscape:window-height="991"
     inkscape:window-x="-9"
     inkscape:window-y="59"
     inkscape:window-maximized="1"
     inkscape:current-layer="text15476" /><defs
     id="defs2"><linearGradient
       inkscape:collect="always"
       id="linearGradient18447"><stop
         style="stop-color:#613a86;stop-opacity:1;"
         offset="0"
         id="stop18443" /><stop
         style="stop-color:#443686;stop-opacity:1;"
         offset="1"
         id="stop18445" /></linearGradient><linearGradient
       inkscape:collect="always"
       id="linearGradient13957"><stop
         style="stop-color:#433686;stop-opacity:1;"
         offset="0"
         id="stop13955" /><stop
         style="stop-color:#613a86;stop-opacity:1;"
         offset="1"
         id="stop13953" /></linearGradient><linearGradient
       inkscape:collect="always"
       xlink:href="#linearGradient47945"
       id="linearGradient23620"
       gradientUnits="userSpaceOnUse"
       gradientTransform="matrix(1.4016646,0,0,1.4016646,-2.7992471,-188.5617)"
       x1="17.941252"
       y1="-69.017342"
       x2="28.86208"
       y2="-56.643246" /><linearGradient
       inkscape:collect="always"
       id="linearGradient47945"><stop
         style="stop-color:#613a86;stop-opacity:1;"
         offset="0"
         id="stop47941" /><stop
         style="stop-color:#433686;stop-opacity:1;"
         offset="1"
         id="stop47943" /></linearGradient><linearGradient
       inkscape:collect="always"
       xlink:href="#linearGradient13957"
       id="linearGradient13959"
       x1="17.24357"
       y1="-292.03455"
       x2="42.759785"
       y2="-265.70712"
       gradientUnits="userSpaceOnUse" /><linearGradient
       inkscape:collect="always"
       xlink:href="#linearGradient18447"
       id="linearGradient18449"
       x1="-24.349331"
       y1="-292.03455"
       x2="125.65067"
       y2="-265.70712"
       gradientUnits="userSpaceOnUse" /></defs><g
     inkscape:label="Warstwa 1"
     inkscape:groupmode="layer"
     id="layer1"
     transform="translate(24.349331,292.03454)"><path
       d="m 30.001674,-265.70712 q -3.576695,0 -6.489673,-1.65929 -2.912985,-1.69616 -4.609142,-4.68289 -1.659288,-3.0236 -1.659288,-6.82153 0,-3.79793 1.659288,-6.78466 1.696157,-3.02359 4.609142,-4.68289 2.912978,-1.69616 6.489673,-1.69616 3.613566,0 6.526551,1.69616 2.912969,1.6593 4.572273,4.68289 1.659288,2.98673 1.659288,6.78466 0,3.79793 -1.659288,6.82153 -1.659304,2.98673 -4.572273,4.68289 -2.912985,1.65929 -6.526551,1.65929 z m 0,-2.24926 q 2.8761,0 5.162244,-1.32743 2.286129,-1.32743 3.613566,-3.79794 1.327436,-2.50737 1.327436,-5.78908 0,-3.28171 -1.327436,-5.7522 -1.327437,-2.4705 -3.613566,-3.79794 -2.286144,-1.32744 -5.162244,-1.32744 -2.876107,0 -5.162236,1.32744 -2.286144,1.32744 -3.613573,3.79794 -1.327429,2.47049 -1.327429,5.7522 0,3.28171 1.327429,5.78908 1.327429,2.47051 3.613573,3.79794 2.286129,1.32743 5.162236,1.32743 z"
       style="font-size:48.7336px;font-family:Poppins;-inkscape-font-specification:Poppins;fill:url(#linearGradient13959);fill-opacity:1;fill-rule:evenodd;stroke-width:1;stroke-linecap:square"
       id="path23596"
       inkscape:export-filename="..\spotted.svg"
       inkscape:export-xdpi="96"
       inkscape:export-ydpi="96" /><path
       id="path23604"
       style="font-size:48.7336px;font-family:Poppins;-inkscape-font-specification:Poppins;fill:url(#linearGradient18449);fill-opacity:1;fill-rule:evenodd;stroke-width:1;stroke-linecap:square"
       d="m 112.0076,-291.73955 c 2.85152,0 5.29744,0.51622 7.33775,1.54867 2.04032,1.03244 3.60128,2.51967 4.68289,4.46164 1.08162,1.94199 1.62243,4.25271 1.62243,6.93216 0,2.65487 -0.54081,4.95329 -1.62243,6.89528 -1.08161,1.9174 -2.64257,3.39232 -4.68289,4.42477 -2.04031,1.00787 -4.48623,1.5118 -7.33775,1.5118 h -7.63274 v -25.77432 z m 0,23.63568 c 3.58898,0 6.31759,-0.93412 8.18583,-2.80236 1.89282,-1.89282 2.83923,-4.5231 2.83923,-7.89085 0,-3.39233 -0.94641,-6.0349 -2.83923,-7.92773 -1.86824,-1.9174 -4.59685,-2.8761 -8.18583,-2.8761 h -5.05162 v 6.14716 15.34988 z m -23.598827,-21.53391 v 9.62389 h 9.77139 v 2.13864 h -9.77139 v 9.77138 h 10.87758 v 2.13864 h -13.4587 v -25.8112 h 13.4587 v 2.13865 z m -6.67406,-2.10177 v 2.13864 h -7.15338 v 23.63568 h -2.58113 v -23.63568 h -7.19026 v -2.13864 z m -19.17404,0 v 2.13864 h -7.15339 v 23.63568 h -2.581121 v -23.63568 h -7.190261 v -2.13864 z m -48.451298,7.4115 c 0,2.21239 -0.725168,3.99459 -2.175512,5.34661 -1.450343,1.35201 -3.6258551,2.02802 -6.5265421,2.02802 H 0.20820691 v 10.98819 H -2.3729111 v -25.77432 h 7.780232 c 2.876107,0 5.0393291,0.676 6.4896651,2.02802 1.474923,1.35202 2.212389,3.14651 2.212389,5.38348 z m -8.7020541,5.16223 c 4.031461,0 6.0471881,-1.72074 6.0471881,-5.16223 0,-1.72075 -0.479346,-3.0236 -1.438045,-3.90856 -0.9587001,-0.88496 -2.4950811,-1.32743 -4.6091431,-1.32743 H 0.20820691 v 10.39822 z m -21.0545899,13.4587 c -1.696158,0 -3.195669,-0.29498 -4.498526,-0.88495 -1.278269,-0.58997 -2.286129,-1.41347 -3.023595,-2.4705 -0.737465,-1.05703 -1.130774,-2.23697 -1.179941,-3.53982 h 2.728612 c 0.122915,1.25368 0.676016,2.35988 1.659296,3.31858 0.98328,0.93412 2.421334,1.40117 4.314154,1.40117 1.745333,0 3.121929,-0.44247 4.129796,-1.32742 1.032447,-0.90954 1.5486709,-2.05261 1.5486709,-3.4292 0,-1.10619 -0.2826919,-1.99115 -0.8480829,-2.65487 -0.565391,-0.6883 -1.265979,-1.19223 -2.101772,-1.5118 -0.835785,-0.34415 -1.991147,-0.71288 -3.46607,-1.1062 -1.720754,-0.46706 -3.08506,-0.92183 -4.092919,-1.3643 -1.007868,-0.44248 -1.868241,-1.13078 -2.581126,-2.0649 -0.712878,-0.93412 -1.069317,-2.2001 -1.069317,-3.79793 0,-1.32743 0.344149,-2.50738 1.032447,-3.53982 0.688298,-1.05703 1.659288,-1.88053 2.912977,-2.4705 1.253689,-0.58997 2.691743,-0.88496 4.314161,-0.88496 2.384464,0 4.301864,0.58997 5.752207,1.76991 1.4749239,1.15536 2.3230069,2.65487 2.5442489,4.49853 h -2.8023599 c -0.172075,-1.05703 -0.749756,-1.99115 -1.733036,-2.80237 -0.983279,-0.83579 -2.310716,-1.25368 -3.982302,-1.25368 -1.548671,0 -2.83923,0.41789 -3.871677,1.25368 -1.032455,0.81122 -1.548679,1.9297 -1.548679,3.35546 0,1.08162 0.282692,1.95428 0.848083,2.618 0.565391,0.66371 1.265987,1.16764 2.101772,1.51179 0.860381,0.34415 2.015735,0.71289 3.466079,1.1062 1.671578,0.46706 3.023594,0.93412 4.056041,1.40118 1.032455,0.44248 1.9051179,1.13078 2.6179959,2.06489 0.712878,0.93413 1.069317,2.18782 1.069317,3.76107 0,1.20452 -0.319569,2.34758 -0.9587,3.4292 -0.639131,1.08161 -1.585541,1.95428 -2.8392299,2.61799 -1.253689,0.66372 -2.753192,0.99557 -4.498525,0.99557 z"
       sodipodi:nodetypes="ssssccsccsssscscccscccccccccccccccccccccccccccccccsssccccscsssssccsscscccscscccssscssccccscsscccsssss"
       inkscape:export-filename="..\spotted.svg"
       inkscape:export-xdpi="96"
       inkscape:export-ydpi="96" /><path
       id="path23590"
       style="fill:url(#linearGradient23620);fill-opacity:1;stroke-width:0.999998"
       d="m 22.348383,-271.39991 c 0.003,0.003 0.005,0.007 0.008,0.0105 0.0703,0.0851 0.14177,0.16847 0.21455,0.25057 0.0728,0.0821 0.14677,0.16293 0.22206,0.24206 0.0753,0.0791 0.15178,0.15641 0.22956,0.23256 0.0778,0.0761 0.15678,0.15088 0.23705,0.22405 0.0802,0.0732 0.16179,0.14486 0.24456,0.21505 0.0827,0.0702 0.16679,0.13884 0.25207,0.20605 0.0853,0.0672 0.17179,0.13331 0.25956,0.19755 0.0878,0.0642 0.17681,0.12679 0.26706,0.18805 0.0903,0.0613 0.18181,0.12076 0.27458,0.17904 0.0928,0.0583 0.18681,0.11524 0.28206,0.17055 0.0952,0.0553 0.19128,0.10918 0.28808,0.16104 0.0968,0.0519 0.19424,0.10164 0.29256,0.15003 0.0983,0.0484 0.19772,0.0951 0.29758,0.14004 0.0999,0.0449 0.20017,0.0881 0.30158,0.12953 0.10139,0.0415 0.20363,0.0815 0.30657,0.11953 0.10294,0.038 0.2066,0.0745 0.31108,0.10903 0.10447,0.0346 0.20957,0.0674 0.31558,0.0985 0.10601,0.0311 0.21303,0.0604 0.32058,0.088 0.10754,0.0277 0.21599,0.0533 0.32508,0.0775 0.10909,0.0242 0.21896,0.0468 0.32958,0.0675 0.11062,0.0207 0.22193,0.0397 0.33408,0.057 0.11216,0.0173 0.22489,0.0332 0.33859,0.047 0.11369,0.0138 0.22835,0.0256 0.34359,0.036 0.11522,0.0104 0.23131,0.0191 0.34807,0.026 0.11677,0.007 0.2343,0.012 0.35259,0.0155 0.11831,0.004 0.23726,0.005 0.35709,0.005 0.11984,0 0.23879,-0.002 0.35709,-0.005 0.1183,-0.003 0.23582,-0.009 0.35259,-0.0155 0.11676,-0.007 0.23286,-0.0156 0.34809,-0.026 0.11522,-0.0104 0.22938,-0.0222 0.34308,-0.036 0.11369,-0.0138 0.22693,-0.0297 0.33909,-0.047 0.11215,-0.0173 0.22345,-0.0363 0.33407,-0.057 0.11062,-0.0207 0.22051,-0.0433 0.32959,-0.0675 0.10908,-0.0242 0.21753,-0.0499 0.32508,-0.0775 0.10754,-0.0277 0.21407,-0.0569 0.32008,-0.088 0.106,-0.0311 0.2116,-0.064 0.31608,-0.0985 0.10447,-0.0346 0.20814,-0.071 0.31107,-0.10903 0.10294,-0.038 0.20467,-0.078 0.30608,-0.11953 0.1014,-0.0415 0.20221,-0.0846 0.30208,-0.12953 0.0999,-0.0449 0.19924,-0.0916 0.29757,-0.14004 0.0983,-0.0484 0.19578,-0.0982 0.29257,-0.15003 0.0968,-0.0519 0.19282,-0.10573 0.28807,-0.16104 0.0952,-0.0553 0.18931,-0.11226 0.28207,-0.17055 0.0927,-0.0583 0.18431,-0.11778 0.27457,-0.17904 0.0903,-0.0613 0.1793,-0.12381 0.26706,-0.18805 0.0878,-0.0642 0.1743,-0.13033 0.25958,-0.19755 0.0853,-0.0672 0.16928,-0.13585 0.25205,-0.20605 0.0828,-0.0702 0.16429,-0.14188 0.24456,-0.21505 0.0803,-0.0732 0.15928,-0.14791 0.23706,-0.22405 0.0778,-0.0762 0.15428,-0.15344 0.22956,-0.23256 0.0753,-0.0791 0.14927,-0.15996 0.22206,-0.24206 0.0728,-0.0821 0.14426,-0.16549 0.21455,-0.25057 0.003,-0.003 0.006,-0.007 0.009,-0.0105 -4.20528,-3.07917 -11.10184,-3.07862 -15.3073,0 z m 7.65339,-13.90095 c -1.7573,0.01 -3.29821,1.07641 -4.14153,2.86871 -0.42817,1.19579 -0.34713,2.46827 0.22906,3.58389 0.6245,1.20914 1.82228,2.07703 3.18379,2.30757 0.30464,0.0516 1.06221,0.0587 1.36984,0.013 0.81121,-0.12049 1.53342,-0.44305 2.17154,-0.97074 1.89616,-1.62774 2.1112,-4.94324 -0.034,-6.82819 -0.81642,-0.65703 -1.72052,-0.97424 -2.77869,-0.97424 z" /></g></svg>
